# xmcd
#
# Track frame offsets: 
#        150
#        16975
#        28365
#        42097
#        55377
#        71640
#        87230
#        101647
#        118365
#        133455
#
# Disc length: 1980 seconds
#
# Revision: 2
# Processed by: cddbd v1.5.2PL0 Copyright (c) Steve Scherf et al.
# Submitted via: ExactAudioCopy v1.0b1
#
DISCID=9507ba0a
DTITLE=Various Artist - Greatest Country Hits Of The 80's 1986
DYEAR=1989
DGENRE=Country
TTITLE0=Ricky Skaggs - Cajun Moon
TTITLE1=George Jones - The One I Loved Back Then (The Corvette Song)
TTITLE2=Merle Haggard - I Had A Beautiful Time
TTITLE3=Exile - It'll Be Me
TTITLE4=T.G. Sheppard - Strong Heart
TTITLE5=Rosanne Cash - Never Be You
TTITLE6=John Conlee - Got My Heart Set On You
TTITLE7=Janie Frickie - Always Have Always Will
TTITLE8=Gatlins - She Used To Be Somebody's Baby
TTITLE9=Willie Nelson - Living In The Promiseland
EXTD=
EXTT0=Ricky Skaggs
EXTT1=George Jones
EXTT2=Merle Haggard
EXTT3=Exile
EXTT4=T. G> Sheppard
EXTT5=Rosanne Cash
EXTT6=John Conlee
EXTT7=Janie Frickie
EXTT8=The Gatlins
EXTT9=Willie Nelson
PLAYORDER=
